# xmcd
#
# Track frame offsets:
#	150
#	10201
#	29583
#
# Disc length: 593 seconds
#
# Revision: 1
# Processed by: cddbd v1.5PL3 Copyright (c) Steve Scherf et al.
# Submitted via: audiograbber 1.83.01
#
DISCID=1c024f03
DTITLE=Cole Summers - Branded
DYEAR=1997
DGENRE=Country
TTITLE0=Branded
TTITLE1=Adios, Goodbye
TTITLE2=I'd Do It All Over Again
EXTD=Inquiries call 602-655-1537
EXTT0=
EXTT1=
EXTT2=
PLAYORDER=
